# Blender v2.82 (sub 7) OBJ File: ''
# www.blender.org
o Plane_Plane.001
v -1.000000 1.000000 -0.000000
v 1.000000 1.000000 -0.000000
v -1.000000 -1.000000 0.000000
v 1.000000 -1.000000 0.000000
v 0.000000 -0.000000 -3.000000
vt 0.000000 0.000000
vt 0.000000 1.000000
vt 1.000000 1.000000
vt 1.000000 0.000000
vt 0.000000 0.000000
vn 0.0000 0.0000 1.0000
vn -0.9487 -0.0000 -0.3162
vn 0.0000 -0.9487 -0.3162
vn 0.9487 -0.0000 -0.3162
vn 0.0000 0.9487 -0.3162
s off
f 1/1/1 3/2/1 4/3/1 2/4/1
f 1/1/2 5/5/2 3/2/2
f 3/2/3 5/5/3 4/3/3
f 4/3/4 5/5/4 2/4/4
f 2/4/5 5/5/5 1/1/5
